<svg preserveAspectRatio="none" width="100%" height="100%" overflow="visible" style="display: block;" viewBox="0 0 31.9999 27.6561" fill="none" xmlns="http://www.w3.org/2000/svg">
<g id="VDM Logo Mark">
<path id="Vector" fill-rule="evenodd" clip-rule="evenodd" d="M10.0006 26.0006L0 16L2.66631 13.3337C4.87365 11.1264 8.45786 11.1263 10.6652 13.3337L20.6658 23.3342L17.9995 26.0005C15.7921 28.2079 12.2079 28.2079 10.0006 26.0006Z" fill="var(--fill-0, #FF1616)"/>
<path id="Vector_2" fill-rule="evenodd" clip-rule="evenodd" d="M17.9993 26.0005L31.9999 12L29.3336 9.33364C27.1262 7.1263 23.542 7.12627 21.3346 9.33364L7.33408 23.3342L10.0004 26.0005C12.2077 28.2078 15.792 28.2079 17.9993 26.0005Z" fill="var(--fill-0, #FFCF00)"/>
<path id="Vector_3" d="M13.9999 10C16.7613 10 18.9999 7.76142 18.9999 5C18.9999 2.23858 16.7613 0 13.9999 0C11.2385 0 8.9999 2.23858 8.9999 5C8.9999 7.76142 11.2385 10 13.9999 10Z" fill="var(--fill-0, #FF1616)"/>
</g>
</svg>
